<?xml version="1.0" encoding="utf-8"?>
<!-- Generator: Adobe Illustrator 28.1.0, SVG Export Plug-In . SVG Version: 6.00 Build 0)  -->
<svg version="1.1" id="Layer_1" xmlns="http://www.w3.org/2000/svg" xmlns:xlink="http://www.w3.org/1999/xlink" x="0px" y="0px"
	 viewBox="0 0 384 384" style="enable-background:new 0 0 384 384;" xml:space="preserve">
<path d="M129.2,296.2c2-0.3,2.7-1.6,3.6-2.5c10.7-10.6,21.3-21.4,32.1-32c9.4-9.1,24.1-5.3,27.5,6.9c1.6,5.5,0.4,10.6-3.3,15.1
	c-1.8,2.1-3.8,4-5.7,5.9c-19,19-38,37.9-57,56.9c-9.2,9.2-18.1,9.1-27.3-0.1c-20.2-20.2-40.5-40.4-60.7-60.6
	c-4.5-4.5-7-9.6-5.6-16.1c2.6-11.8,16.2-16.9,25.8-9.7c1.6,1.2,3,2.6,4.4,4c9.9,9.9,19.8,19.8,29.7,29.6c0.9,1,1.9,1.9,3,2.9
	c1.2-1.6,0.7-3.2,0.7-4.6c0-80.4,0-160.9,0-241.3c0-8.8,4.6-15.1,12.3-17c9.9-2.5,19.7,4.7,20.4,15c0.1,1.6,0.1,3.2,0.1,4.9
	c0,79.3,0,158.6,0,238C129.2,292.9,129.2,294.5,129.2,296.2L129.2,296.2z"/>
<path d="M303.3,208.1h-29.2c-8,0-14.9,2.9-20.6,8.6c-5.7,5.7-8.6,12.6-8.6,20.6v29.2c0,8,2.9,14.9,8.6,20.6
	c5.7,5.7,12.6,8.6,20.6,8.6h24c2.9,0,5.2,2.3,5.2,5.2v18.8c0,2.9-2.3,5.2-5.2,5.2h-31.9c-3.7,0-6.7,3-6.7,6.7v15.7
	c0,3.7,3,6.7,6.7,6.7h37.1c8,0,14.9-2.9,20.6-8.6c5.7-5.7,8.6-12.6,8.6-20.6v-87.6c0-8-2.9-14.9-8.6-20.6
	C318.2,210.9,311.3,208.1,303.3,208.1z M298.1,266.4h-18.8c-2.9,0-5.2-2.3-5.2-5.2v-18.8c0-2.9,2.3-5.2,5.2-5.2h18.8
	c2.9,0,5.2,2.3,5.2,5.2v18.8C303.3,264.1,301,266.4,298.1,266.4z"/>
<path d="M329.4,149.8c-0.3-0.1-0.6-0.1-0.9-0.1h-25.2V37.1c0-2.2-1.8-4-4-4H249c-2.2,0-4,1.8-4,4v21.2c0,2.2,1.8,4,4,4h21.2
	c2.2,0,4,1.8,4,4v83.4v0.1H249c-2.2,0-4,1.8-4,4V175c0,1.9,1.3,3.5,3.1,3.9c0.3,0.1,0.6,0.1,0.9,0.1h29.2h21.2c0.3,0,0.6,0,0.9-0.1
	h28.3c2.2,0,4-1.8,4-4v-21.2C332.5,151.8,331.2,150.2,329.4,149.8z"/>
</svg>
