<svg width="16" height="16" viewBox="0 0 16 16" fill="none" xmlns="http://www.w3.org/2000/svg">
<g clip-path="url(#clip0_31_67)">
<path d="M6.5 16C6.34198 16.0008 6.18749 15.9533 6.05715 15.864C5.92682 15.7746 5.82686 15.6476 5.77062 15.5L4.52562 12.2625C4.50041 12.1972 4.46183 12.138 4.41238 12.0885C4.36292 12.0391 4.30367 12.0005 4.23844 11.9753L0.999998 10.7293C0.852481 10.6727 0.725598 10.5727 0.636097 10.4425C0.546596 10.3123 0.498683 10.158 0.498683 9.99997C0.498683 9.84196 0.546596 9.68767 0.636097 9.55745C0.725598 9.42723 0.852481 9.32722 0.999998 9.2706L4.2375 8.0256C4.30274 8.00038 4.36198 7.96181 4.41144 7.91235C4.4609 7.8629 4.49947 7.80365 4.52469 7.73841L5.77062 4.49997C5.82724 4.35246 5.92726 4.22557 6.05748 4.13607C6.18769 4.04657 6.34199 3.99866 6.5 3.99866C6.65801 3.99866 6.8123 4.04657 6.94252 4.13607C7.07274 4.22557 7.17276 4.35246 7.22937 4.49997L8.47437 7.73747C8.49959 7.80271 8.53816 7.86196 8.58762 7.91142C8.63707 7.96087 8.69632 7.99945 8.76156 8.02466L11.9803 9.2631C12.1338 9.32001 12.2661 9.42284 12.3591 9.5576C12.4521 9.69236 12.5013 9.8525 12.5 10.0162C12.4976 10.1715 12.4487 10.3225 12.3595 10.4496C12.2704 10.5767 12.1451 10.6742 12 10.7293L8.7625 11.9743C8.69726 11.9996 8.63801 12.0381 8.58856 12.0876C8.5391 12.1371 8.50053 12.1963 8.47531 12.2615L7.22937 15.5C7.17314 15.6476 7.07318 15.7746 6.94284 15.864C6.81251 15.9533 6.65801 16.0008 6.5 16ZM2.75 5.49997C2.65736 5.49997 2.5669 5.4719 2.49053 5.41946C2.41416 5.36702 2.35547 5.29268 2.32219 5.20622L1.79531 3.83622C1.78389 3.80626 1.76627 3.77905 1.74359 3.75638C1.72092 3.73371 1.69371 3.71608 1.66375 3.70466L0.293748 3.17779C0.207304 3.1445 0.132972 3.0858 0.0805457 3.00943C0.028119 2.93307 5.72205e-05 2.84261 5.72205e-05 2.74997C5.72205e-05 2.65734 0.028119 2.56688 0.0805457 2.49051C0.132972 2.41415 0.207304 2.35545 0.293748 2.32216L1.66375 1.79529C1.69368 1.78382 1.72086 1.76617 1.74353 1.74351C1.7662 1.72084 1.78384 1.69366 1.79531 1.66372L2.3175 0.305912C2.34695 0.225975 2.39762 0.155575 2.46408 0.102277C2.53054 0.0489799 2.61026 0.0148003 2.69469 0.00341211C2.79604 -0.0089097 2.89862 0.0129586 2.98614 0.0655494C3.07365 0.11814 3.14111 0.198443 3.17781 0.293725L3.70469 1.66372C3.71616 1.69366 3.7338 1.72084 3.75647 1.74351C3.77913 1.76617 3.80632 1.78382 3.83625 1.79529L5.20625 2.32216C5.29269 2.35545 5.36702 2.41415 5.41945 2.49051C5.47188 2.56688 5.49994 2.65734 5.49994 2.74997C5.49994 2.84261 5.47188 2.93307 5.41945 3.00943C5.36702 3.0858 5.29269 3.1445 5.20625 3.17779L3.83625 3.70466C3.80629 3.71608 3.77908 3.73371 3.7564 3.75638C3.73373 3.77905 3.71611 3.80626 3.70469 3.83622L3.17781 5.20622C3.14453 5.29268 3.08584 5.36702 3.00947 5.41946C2.9331 5.4719 2.84264 5.49997 2.75 5.49997ZM12.5 7.99997C12.3989 7.99994 12.3003 7.96929 12.217 7.91205C12.1337 7.85482 12.0697 7.77368 12.0334 7.67935L11.3197 5.82404C11.3071 5.79134 11.2878 5.76165 11.2631 5.73689C11.2383 5.71213 11.2086 5.69284 11.1759 5.68029L9.32062 4.96654C9.22637 4.93022 9.14532 4.8662 9.08816 4.78292C9.031 4.69963 9.0004 4.60099 9.0004 4.49997C9.0004 4.39896 9.031 4.30032 9.08816 4.21703C9.14532 4.13375 9.22637 4.06973 9.32062 4.03341L11.1759 3.31966C11.2086 3.30711 11.2383 3.28782 11.2631 3.26306C11.2878 3.23829 11.3071 3.2086 11.3197 3.17591L12.0281 1.33372C12.0605 1.24661 12.1158 1.16989 12.1883 1.11173C12.2608 1.05356 12.3476 1.01613 12.4397 1.00341C12.5503 0.990023 12.6622 1.01396 12.7577 1.07142C12.8531 1.12889 12.9266 1.21659 12.9666 1.3206L13.6803 3.17591C13.6929 3.2086 13.7122 3.23829 13.7369 3.26306C13.7617 3.28782 13.7914 3.30711 13.8241 3.31966L15.6794 4.03341C15.7736 4.06973 15.8547 4.13375 15.9118 4.21703C15.969 4.30032 15.9996 4.39896 15.9996 4.49997C15.9996 4.60099 15.969 4.69963 15.9118 4.78292C15.8547 4.8662 15.7736 4.93022 15.6794 4.96654L13.8241 5.68029C13.7914 5.69284 13.7617 5.71213 13.7369 5.73689C13.7122 5.76165 13.6929 5.79134 13.6803 5.82404L12.9666 7.67935C12.9303 7.77368 12.8663 7.85482 12.783 7.91205C12.6997 7.96929 12.6011 7.99994 12.5 7.99997Z" fill="url(#paint0_linear_31_67)"/>
</g>
<defs>
<linearGradient id="paint0_linear_31_67" x1="7.99983" y1="6.10352e-05" x2="7.99983" y2="16" gradientUnits="userSpaceOnUse">
<stop stop-color="#91B0FF"/>
<stop offset="1" stop-color="#CC59FF"/>
</linearGradient>
<clipPath id="clip0_31_67">
<rect width="16" height="16" fill="white"/>
</clipPath>
</defs>
</svg>
