<?xml version="1.0" encoding="UTF-8"?>
<svg id="Layer_1" data-name="Layer 1" xmlns="http://www.w3.org/2000/svg" viewBox="0 0 384 384">
  <path d="m129.2,296.16c1.98-.31,2.67-1.61,3.59-2.53,10.72-10.64,21.3-21.42,32.12-31.96,9.35-9.1,24.12-5.33,27.53,6.91,1.55,5.55.39,10.65-3.33,15.06-1.77,2.09-3.75,4-5.7,5.94-18.99,18.97-37.98,37.94-57,56.88-9.21,9.17-18.12,9.12-27.34-.07-20.24-20.19-40.46-40.4-60.7-60.59-4.5-4.49-7.04-9.59-5.62-16.15,2.56-11.8,16.21-16.95,25.85-9.68,1.59,1.2,3.03,2.6,4.44,4.01,9.91,9.86,19.8,19.75,29.7,29.62.95.95,1.95,1.86,3.01,2.87,1.2-1.62.7-3.16.7-4.57.03-80.44.02-160.89.03-241.33,0-8.8,4.59-15.13,12.26-17.04,9.9-2.46,19.71,4.72,20.39,14.96.11,1.61.05,3.24.05,4.86,0,79.32,0,158.64,0,237.96,0,1.57,0,3.15,0,4.83Z"/>
  <path d="m281.27,319.64c1.71.99,3.11.64,4.44.64,12.87.03,25.74.02,38.61.02,1,0,2-.01,3,.01,10.32.25,17.76,7.08,17.85,16.37.09,9.44-7.42,16.6-17.9,16.66-19.74.12-39.49.04-59.23.04-5.75,0-11.5,0-17.24,0-7.13-.02-13.01-2.47-16.51-9.01-3.53-6.6-2.04-12.69,2.16-18.54,19.36-26.97,38.65-53.97,57.93-80.99.67-.94,2.24-1.83,1.41-3.13-.59-.93-2.1-.4-3.19-.4-14.37-.02-28.74,0-43.11-.03-9.78-.02-17.08-6.88-17.16-16-.08-9.38,7.18-16.58,17.06-16.61,25.74-.07,51.48.01,77.23-.05,7.18-.02,13.07,2.25,16.55,8.81,3.57,6.72,2.01,12.89-2.28,18.86-18.58,25.83-37.06,51.74-55.57,77.62-1.3,1.82-2.58,3.65-4.05,5.72Z"/>
  <path d="m335.86,177.58c-6.43-.42-11.94-3.87-14.5-10.9-1.45-3.98-3.69-5.08-7.79-5.02-16.48.23-32.98.24-49.46,0-4.24-.06-6.43,1.1-8.07,5.18-4,9.92-14.66,13.55-23.45,8.48-7.35-4.24-10.17-12.77-6.66-21.07,7.82-18.48,15.78-36.91,23.69-55.35,7.82-18.21,15.68-36.41,23.49-54.62,1.89-4.41,4.67-7.95,9.18-9.88,8.42-3.6,17.52-.08,21.5,8.72,5.43,12.04,10.53,24.24,15.75,36.38,10.24,23.82,20.46,47.65,30.7,71.47,1.93,4.49,3.77,8.92,2.44,14.04-1.87,7.19-8.4,12.52-16.82,12.59Zm-46.84-85.74c-.58.6-.91.81-1.04,1.11-4.79,11.08-9.54,22.18-14.36,33.24-1.04,2.38.28,2.49,2.02,2.48,8.73-.01,17.46-.06,26.19.03,2.92.03,2.64-1.16,1.76-3.18-3.44-7.87-6.77-15.78-10.16-23.67-1.4-3.27-2.86-6.51-4.4-10.01Z"/>
</svg>